<svg version="1.1" xmlns="http://www.w3.org/2000/svg" xmlns:xlink="http://www.w3.org/1999/xlink" role="group" style="width: 350px; height: 350px; overflow: visible;"><defs><clipPath id="id-46"><rect width="350" height="350"></rect></clipPath><linearGradient id="gradient-id-69" x1="1%" x2="99%" y1="59%" y2="41%"><stop stop-color="#474758" offset="0"></stop><stop stop-color="#474758" stop-opacity="1" offset="0.75"></stop><stop stop-color="#3cabff" stop-opacity="1" offset="0.755"></stop></linearGradient><clipPath id="id-78"></clipPath><filter id="filter-id-51" filterUnits="objectBoundingBox" width="200%" height="200%" x="-50%" y="-50%"><feGaussianBlur result="blurOut" in="SourceGraphic" stdDeviation="1.5"></feGaussianBlur><feOffset result="offsetBlur" dx="1" dy="1"></feOffset><feFlood flood-color="#000000" flood-opacity="0.5"></feFlood><feComposite in2="offsetBlur" operator="in"></feComposite><feMerge><feMergeNode></feMergeNode><feMergeNode in="SourceGraphic"></feMergeNode></feMerge></filter><filter id="filter-id-66" filterUnits="objectBoundingBox" width="120%" height="120%" x="-10%" y="-10%"><feColorMatrix type="saturate" values="0"></feColorMatrix></filter><filter id="filter-id-83" filterUnits="objectBoundingBox" width="200%" height="200%" x="-50%" y="-50%"><feGaussianBlur result="blurOut" in="SourceGraphic" stdDeviation="1.5"></feGaussianBlur><feOffset result="offsetBlur" dx="1" dy="1"></feOffset><feFlood flood-color="#000000" flood-opacity="0.5"></feFlood><feComposite in2="offsetBlur" operator="in"></feComposite><feMerge><feMergeNode></feMergeNode><feMergeNode in="SourceGraphic"></feMergeNode></feMerge></filter></defs><g><g fill="#ffffff" fill-opacity="0"><rect width="350" height="350"></rect></g><g><g role="region" clip-path="url(&quot;#id-46&quot;)" opacity="1" aria-label="Chart"><g><g><g><g><g><g transform="translate(175,175)"><g><g role="group" opacity="1" aria-label="Series" font-size="9px"><g><g clip-path="url(&quot;#id-78&quot;)"><g></g></g><g></g><g><g><g stroke-opacity="1" stroke="#ffffff" fill="#7acd6d" role="menuitem" focusable="true" tabindex="0"><g><g><path d=" M0,-70  L0,-140  a140,140,0,0,1,36.2347,4.7704 L18.1173,-67.6148  a70,70,0,0,0,-18.1173,-2.3852 L0,-70 "></path></g><g></g></g></g><g stroke-opacity="1" stroke="#ffffff" fill="#7acd6d" role="menuitem" focusable="true" tabindex="0"><g><g><path d=" M18.1173,-67.6148  L36.2347,-135.2296  a140,140,0,0,1,33.7653,13.9861 L35,-60.6218  a70,70,0,0,0,-16.8827,-6.993 L18.1173,-67.6148 "></path></g><g></g></g></g><g stroke-opacity="1" stroke="#ffffff" fill="#7acd6d" role="menuitem" focusable="true" tabindex="0"><g><g><path d=" M35,-60.6218  L70,-121.2436  a140,140,0,0,1,28.9949,22.2486 L49.4975,-49.4975  a70,70,0,0,0,-14.4975,-11.1243 L35,-60.6218 "></path></g><g></g></g></g><g stroke-opacity="1" stroke="#ffffff" fill="#7acd6d" role="menuitem" focusable="true" tabindex="0"><g><g><path d=" M49.4975,-49.4975  L98.9949,-98.9949  a140,140,0,0,1,22.2486,28.9949 L60.6218,-35  a70,70,0,0,0,-11.1243,-14.4975 L49.4975,-49.4975 "></path></g><g></g></g></g><g stroke-opacity="1" stroke="#ffffff" fill="#7acd6d" role="menuitem" focusable="true" tabindex="0"><g><g><path d=" M60.6218,-35  L121.2436,-70  a140,140,0,0,1,13.9861,33.7653 L67.6148,-18.1173  a70,70,0,0,0,-6.993,-16.8827 L60.6218,-35 "></path></g><g></g></g></g><g stroke-opacity="1" stroke="#ffffff" fill="#7acd6d" role="menuitem" focusable="true" tabindex="0"><g><g><path d=" M67.6148,-18.1173  L135.2296,-36.2347  a140,140,0,0,1,4.7704,36.2347 L70,0  a70,70,0,0,0,-2.3852,-18.1173 L67.6148,-18.1173 "></path></g><g></g></g></g><g stroke-opacity="1" stroke="#ffffff" fill="#fb6666" role="menuitem" focusable="true" tabindex="0"><g><g><path d=" M70,0  L140,0  a140,140,0,0,1,-4.7704,36.2347 L67.6148,18.1173  a70,70,0,0,0,2.3852,-18.1173 L70,0 "></path></g><g></g></g></g><g stroke-opacity="1" stroke="#ffffff" fill="#fb6666" role="menuitem" focusable="true" tabindex="0"><g><g><path d=" M67.6148,18.1173  L135.2296,36.2347  a140,140,0,0,1,-13.9861,33.7653 L60.6218,35  a70,70,0,0,0,6.993,-16.8827 L67.6148,18.1173 "></path></g><g></g></g></g><g stroke-opacity="1" stroke="#ffffff" fill="#fb6666" role="menuitem" focusable="true" tabindex="0"><g><g><path d=" M60.6218,35  L121.2436,70  a140,140,0,0,1,-22.2486,28.9949 L49.4975,49.4975  a70,70,0,0,0,11.1243,-14.4975 L60.6218,35 "></path></g><g></g></g></g><g stroke-opacity="1" stroke="#ffffff" fill="#7acd6d" role="menuitem" focusable="true" tabindex="0"><g><g><path d=" M49.4975,49.4975  L98.9949,98.9949  a140,140,0,0,1,-28.9949,22.2486 L35,60.6218  a70,70,0,0,0,14.4975,-11.1243 L49.4975,49.4975 "></path></g><g></g></g></g><g stroke-opacity="1" stroke="#ffffff" fill="#7acd6d" role="menuitem" focusable="true" tabindex="0"><g><g><path d=" M35,60.6218  L70,121.2436  a140,140,0,0,1,-33.7653,13.9861 L18.1173,67.6148  a70,70,0,0,0,16.8827,-6.993 L35,60.6218 "></path></g><g></g></g></g><g stroke-opacity="1" stroke="#ffffff" fill="#7acd6d" role="menuitem" focusable="true" tabindex="0"><g><g><path d=" M18.1173,67.6148  L36.2347,135.2296  a140,140,0,0,1,-36.2347,4.7704 L0,70  a70,70,0,0,0,18.1173,-2.3852 L18.1173,67.6148 "></path></g><g></g></g></g><g stroke-opacity="1" stroke="#ffffff" fill="#7acd6d" role="menuitem" focusable="true" tabindex="0"><g><g><path d=" M0,70  L0,140  a140,140,0,0,1,-36.2347,-4.7704 L-18.1173,67.6148  a70,70,0,0,0,18.1173,2.3852 L0,70 "></path></g><g></g></g></g><g stroke-opacity="1" stroke="#ffffff" fill="#7acd6d" role="menuitem" focusable="true" tabindex="0"><g><g><path d=" M-18.1173,67.6148  L-36.2347,135.2296  a140,140,0,0,1,-33.7653,-13.9861 L-35,60.6218  a70,70,0,0,0,16.8827,6.993 L-18.1173,67.6148 "></path></g><g></g></g></g><g stroke-opacity="1" stroke="#ffffff" fill="#7acd6d" role="menuitem" focusable="true" tabindex="0"><g><g><path d=" M-35,60.6218  L-70,121.2436  a140,140,0,0,1,-28.9949,-22.2486 L-49.4975,49.4975  a70,70,0,0,0,14.4975,11.1243 L-35,60.6218 "></path></g><g></g></g></g><g stroke-opacity="1" stroke="#ffffff" fill="#7acd6d" role="menuitem" focusable="true" tabindex="0"><g><g><path d=" M-49.4975,49.4975  L-98.9949,98.9949  a140,140,0,0,1,-22.2486,-28.9949 L-60.6218,35  a70,70,0,0,0,11.1243,14.4975 L-49.4975,49.4975 "></path></g><g></g></g></g><g stroke-opacity="1" stroke="#ffffff" fill="#7acd6d" role="menuitem" focusable="true" tabindex="0"><g><g><path d=" M-60.6218,35  L-121.2436,70  a140,140,0,0,1,-13.9861,-33.7653 L-67.6148,18.1173  a70,70,0,0,0,6.993,16.8827 L-60.6218,35 "></path></g><g></g></g></g><g stroke-opacity="1" stroke="#ffffff" fill="#7acd6d" role="menuitem" focusable="true" tabindex="0"><g><g><path d=" M-67.6148,18.1173  L-135.2296,36.2347  a140,140,0,0,1,-4.7704,-36.2347 L-70,0  a70,70,0,0,0,2.3852,18.1173 L-67.6148,18.1173 "></path></g><g></g></g></g><g stroke-opacity="1" stroke="#ffffff" fill="#fb6666" role="menuitem" focusable="true" tabindex="0"><g><g><path d=" M-70,0  L-140,0  a140,140,0,0,1,4.7704,-36.2347 L-67.6148,-18.1173  a70,70,0,0,0,-2.3852,18.1173 L-70,0 "></path></g><g></g></g></g><g stroke-opacity="1" stroke="#ffffff" fill="#fb6666" role="menuitem" focusable="true" tabindex="0"><g><g><path d=" M-67.6148,-18.1173  L-135.2296,-36.2347  a140,140,0,0,1,13.9861,-33.7653 L-60.6218,-35  a70,70,0,0,0,-6.993,16.8827 L-67.6148,-18.1173 "></path></g><g></g></g></g><g stroke-opacity="1" stroke="#ffffff" fill="#fb6666" role="menuitem" focusable="true" tabindex="0"><g><g><path d=" M-60.6218,-35  L-121.2436,-70  a140,140,0,0,1,22.2486,-28.9949 L-49.4975,-49.4975  a70,70,0,0,0,-11.1243,14.4975 L-60.6218,-35 "></path></g><g></g></g></g><g stroke-opacity="1" stroke="#ffffff" fill="#7acd6d" role="menuitem" focusable="true" tabindex="0"><g><g><path d=" M-49.4975,-49.4975  L-98.9949,-98.9949  a140,140,0,0,1,28.9949,-22.2486 L-35,-60.6218  a70,70,0,0,0,-14.4975,11.1243 L-49.4975,-49.4975 "></path></g><g></g></g></g><g stroke-opacity="1" stroke="#ffffff" fill="#7acd6d" role="menuitem" focusable="true" tabindex="0"><g><g><path d=" M-35,-60.6218  L-70,-121.2436  a140,140,0,0,1,33.7653,-13.9861 L-18.1173,-67.6148  a70,70,0,0,0,-16.8827,6.993 L-35,-60.6218 "></path></g><g></g></g></g><g stroke-opacity="1" stroke="#ffffff" fill="#7acd6d" role="menuitem" focusable="true" tabindex="0"><g><g><path d=" M-18.1173,-67.6148  L-36.2347,-135.2296  a140,140,0,0,1,36.2347,-4.7704 L0,-70  a70,70,0,0,0,-18.1173,2.3852 L-18.1173,-67.6148 "></path></g><g></g></g></g></g></g><g><g><g fill-opacity="0" stroke-opacity="0.2" stroke="#000000" stroke-width="1" display="none"><polyline></polyline></g><g fill-opacity="0" stroke-opacity="0.2" stroke="#000000" stroke-width="1" display="none"><polyline></polyline></g><g fill-opacity="0" stroke-opacity="0.2" stroke="#000000" stroke-width="1" display="none"><polyline></polyline></g><g fill-opacity="0" stroke-opacity="0.2" stroke="#000000" stroke-width="1" display="none"><polyline></polyline></g><g fill-opacity="0" stroke-opacity="0.2" stroke="#000000" stroke-width="1" display="none"><polyline></polyline></g><g fill-opacity="0" stroke-opacity="0.2" stroke="#000000" stroke-width="1" display="none"><polyline></polyline></g><g fill-opacity="0" stroke-opacity="0.2" stroke="#000000" stroke-width="1" display="none"><polyline></polyline></g><g fill-opacity="0" stroke-opacity="0.2" stroke="#000000" stroke-width="1" display="none"><polyline></polyline></g><g fill-opacity="0" stroke-opacity="0.2" stroke="#000000" stroke-width="1" display="none"><polyline></polyline></g><g fill-opacity="0" stroke-opacity="0.2" stroke="#000000" stroke-width="1" display="none"><polyline></polyline></g><g fill-opacity="0" stroke-opacity="0.2" stroke="#000000" stroke-width="1" display="none"><polyline></polyline></g><g fill-opacity="0" stroke-opacity="0.2" stroke="#000000" stroke-width="1" display="none"><polyline></polyline></g><g fill-opacity="0" stroke-opacity="0.2" stroke="#000000" stroke-width="1" display="none"><polyline></polyline></g><g fill-opacity="0" stroke-opacity="0.2" stroke="#000000" stroke-width="1" display="none"><polyline></polyline></g><g fill-opacity="0" stroke-opacity="0.2" stroke="#000000" stroke-width="1" display="none"><polyline></polyline></g><g fill-opacity="0" stroke-opacity="0.2" stroke="#000000" stroke-width="1" display="none"><polyline></polyline></g><g fill-opacity="0" stroke-opacity="0.2" stroke="#000000" stroke-width="1" display="none"><polyline></polyline></g><g fill-opacity="0" stroke-opacity="0.2" stroke="#000000" stroke-width="1" display="none"><polyline></polyline></g><g fill-opacity="0" stroke-opacity="0.2" stroke="#000000" stroke-width="1" display="none"><polyline></polyline></g><g fill-opacity="0" stroke-opacity="0.2" stroke="#000000" stroke-width="1" display="none"><polyline></polyline></g><g fill-opacity="0" stroke-opacity="0.2" stroke="#000000" stroke-width="1" display="none"><polyline></polyline></g><g fill-opacity="0" stroke-opacity="0.2" stroke="#000000" stroke-width="1" display="none"><polyline></polyline></g><g fill-opacity="0" stroke-opacity="0.2" stroke="#000000" stroke-width="1" display="none"><polyline></polyline></g><g fill-opacity="0" stroke-opacity="0.2" stroke="#000000" stroke-width="1" display="none"><polyline></polyline></g></g></g><g><g><g fill="#282828" font-weight="bold" aria-label="0-1" transform="translate(15.924,-120.956)"><g transform="translate(-7.5,-5.5)" style="user-select: none;"><text x="0" y="11" dy="-2.97"><tspan>0-1</tspan></text></g></g><g fill="#282828" font-weight="bold" aria-label="1-2" transform="translate(46.687,-112.713)"><g transform="translate(-7.5,-5.5)" style="user-select: none;"><text x="0" y="11" dy="-2.97"><tspan>1-2</tspan></text></g></g><g fill="#282828" font-weight="bold" aria-label="2-3" transform="translate(74.269,-96.789)"><g transform="translate(-8.5,-5.5)" style="user-select: none;"><text x="0" y="11" dy="-2.97"><tspan>2-3</tspan></text></g></g><g fill="#282828" font-weight="bold" aria-label="3-4" transform="translate(96.789,-74.269)"><g transform="translate(-8.5,-5.5)" style="user-select: none;"><text x="0" y="11" dy="-2.97"><tspan>3-4</tspan></text></g></g><g fill="#282828" font-weight="bold" aria-label="4-5" transform="translate(112.713,-46.687)"><g transform="translate(-8.5,-5.5)" style="user-select: none;"><text x="0" y="11" dy="-2.97"><tspan>4-5</tspan></text></g></g><g fill="#282828" font-weight="bold" aria-label="5-6" transform="translate(120.956,-15.924)"><g transform="translate(-8.5,-5.5)" style="user-select: none;"><text x="0" y="11" dy="-2.97"><tspan>5-6</tspan></text></g></g><g fill="#282828" font-weight="bold" aria-label="6-7" transform="translate(120.956,15.924)"><g transform="translate(-8.5,-5.5)" style="user-select: none;"><text x="0" y="11" dy="-2.97"><tspan>6-7</tspan></text></g></g><g fill="#282828" font-weight="bold" aria-label="7-8" transform="translate(112.713,46.687)"><g transform="translate(-8.5,-5.5)" style="user-select: none;"><text x="0" y="11" dy="-2.97"><tspan>7-8</tspan></text></g></g><g fill="#282828" font-weight="bold" aria-label="8-9" transform="translate(96.789,74.269)"><g transform="translate(-8.5,-5.5)" style="user-select: none;"><text x="0" y="11" dy="-2.97"><tspan>8-9</tspan></text></g></g><g fill="#282828" font-weight="bold" aria-label="9-10" transform="translate(74.269,96.789)"><g transform="translate(-10.5,-5.5)" style="user-select: none;"><text x="0" y="11" dy="-2.97"><tspan>9-10</tspan></text></g></g><g fill="#282828" font-weight="bold" aria-label="10-11" transform="translate(46.687,112.713)"><g transform="translate(-11.5,-5.5)" style="user-select: none;"><text x="0" y="11" dy="-2.97"><tspan>10-11</tspan></text></g></g><g fill="#282828" font-weight="bold" aria-label="11-12" transform="translate(15.924,120.956)"><g transform="translate(-11.5,-5.5)" style="user-select: none;"><text x="0" y="11" dy="-2.97"><tspan>11-12</tspan></text></g></g><g fill="#282828" font-weight="bold" aria-label="12-13" transform="translate(-15.924,120.956)"><g transform="translate(-12.5,-5.5)" style="user-select: none;"><text x="0" y="11" dy="-2.97"><tspan>12-13</tspan></text></g></g><g fill="#282828" font-weight="bold" aria-label="13-14" transform="translate(-46.687,112.713)"><g transform="translate(-12.5,-5.5)" style="user-select: none;"><text x="0" y="11" dy="-2.97"><tspan>13-14</tspan></text></g></g><g fill="#282828" font-weight="bold" aria-label="14-15" transform="translate(-74.269,96.789)"><g transform="translate(-12.5,-5.5)" style="user-select: none;"><text x="0" y="11" dy="-2.97"><tspan>14-15</tspan></text></g></g><g fill="#282828" font-weight="bold" aria-label="15-16" transform="translate(-96.789,74.269)"><g transform="translate(-12.5,-5.5)" style="user-select: none;"><text x="0" y="11" dy="-2.97"><tspan>15-16</tspan></text></g></g><g fill="#282828" font-weight="bold" aria-label="16-17" transform="translate(-112.713,46.687)"><g transform="translate(-12.5,-5.5)" style="user-select: none;"><text x="0" y="11" dy="-2.97"><tspan>16-17</tspan></text></g></g><g fill="#282828" font-weight="bold" aria-label="17-18" transform="translate(-120.956,15.924)"><g transform="translate(-12.5,-5.5)" style="user-select: none;"><text x="0" y="11" dy="-2.97"><tspan>17-18</tspan></text></g></g><g fill="#282828" font-weight="bold" aria-label="18-19" transform="translate(-120.956,-15.924)"><g transform="translate(-12.5,-5.5)" style="user-select: none;"><text x="0" y="11" dy="-2.97"><tspan>18-19</tspan></text></g></g><g fill="#282828" font-weight="bold" aria-label="19-20" transform="translate(-112.713,-46.687)"><g transform="translate(-13.5,-5.5)" style="user-select: none;"><text x="0" y="11" dy="-2.97"><tspan>19-20</tspan></text></g></g><g fill="#282828" font-weight="bold" aria-label="20-21" transform="translate(-96.789,-74.269)"><g transform="translate(-13.5,-5.5)" style="user-select: none;"><text x="0" y="11" dy="-2.97"><tspan>20-21</tspan></text></g></g><g fill="#282828" font-weight="bold" aria-label="21-22" transform="translate(-74.269,-96.789)"><g transform="translate(-13.5,-5.5)" style="user-select: none;"><text x="0" y="11" dy="-2.97"><tspan>21-22</tspan></text></g></g><g fill="#282828" font-weight="bold" aria-label="22-23" transform="translate(-46.687,-112.713)"><g transform="translate(-14.5,-5.5)" style="user-select: none;"><text x="0" y="11" dy="-2.97"><tspan>22-23</tspan></text></g></g><g fill="#282828" font-weight="bold" aria-label="23-24" transform="translate(-15.924,-120.956)"><g transform="translate(-14.5,-5.5)" style="user-select: none;"><text x="0" y="11" dy="-2.97"><tspan>23-24</tspan></text></g></g></g></g><g fill="#ffffff"><g></g></g></g></g><g fill="#000000" font-size="0.8em"><g transform="translate(-38.5,-28)" style="user-select: none;"><text x="38.5px" y="20" dy="-5.4" text-anchor="middle"><tspan>ПІДЧЕРГА</tspan></text><text x="38.5px" y="56" dy="-9.72" text-anchor="middle"><tspan> </tspan><tspan style="font-weight:bold;font-size: 30px">6.3</tspan></text></g></g></g></g><g transform="translate(175,175)"><g><g><g></g></g></g></g></g></g></g></g></g></g><g><g><g role="tooltip" visibility="hidden" opacity="0"><g fill="#ffffff" fill-opacity="0.9" stroke-width="1" stroke-opacity="1" stroke="#ffffff" filter="url(&quot;#filter-id-51&quot;)" style="pointer-events: none;" transform="translate(0,6)"><path d="M3,0 L3,0 L0,-6 L13,0 L21,0 a3,3 0 0 1 3,3 L24,8 a3,3 0 0 1 -3,3 L3,11 a3,3 0 0 1 -3,-3 L0,3 a3,3 0 0 1 3,-3"></path></g><g><g fill="#ffffff" style="pointer-events: none;" transform="translate(12,6)"><g transform="translate(0,7)" display="none"></g></g></g></g><g visibility="hidden" display="none" style="pointer-events: none;"><g fill="#ffffff" opacity="1"><rect width="350" height="350"></rect></g><g><g><g><g stroke-opacity="1" fill="#f3f3f3" fill-opacity="0.8"><g><g><path d=" M53,0  a53,53,0,0,1,-106,0 a53,53,0,0,1,106,0 M42,0  a42,42,0,0,0,-84,0 a42,42,0,0,0,84,0 L42,0 "></path></g></g></g><g stroke-opacity="1" fill="#000000" fill-opacity="0.2"><g><g><path d=" M50,0  a50,50,0,0,1,-100,0 a50,50,0,0,1,100,0 M45,0  a45,45,0,0,0,-90,0 a45,45,0,0,0,90,0 L45,0 "></path></g></g></g><g fill="#000000" fill-opacity="0.4"><g transform="translate(-20,-10)" style="user-select: none;"><text x="20px" y="20" dy="-5.4" text-anchor="middle"><tspan>100%</tspan></text></g></g></g></g></g></g><g opacity="0" aria-labelledby="id-66-title" filter="url(&quot;#filter-id-66&quot;)" display="none" style="cursor: pointer;" aria-hidden="true" visibility="hidden"><g fill="#ffffff" opacity="0"><rect></rect></g><g><g shape-rendering="auto" fill="none" stroke-opacity="1" stroke-width="1.7999999999999998" stroke="#3cabff"><path d=" M15,15  C17.4001,15 22.7998,15.0001 27,15 C31.2002,14.9999 33.2999,6 36,6 C38.7001,6 38.6999,10.5 40.5,10.5 C42.3001,10.5 42.2999,6 45,6 C47.7001,6 50.9999,14.9999 54,15 C57.0002,15.0001 58.7999,15 60,15"></path></g><g shape-rendering="auto" fill="none" stroke-opacity="1" stroke-width="1.7999999999999998" stroke="url(&quot;#gradient-id-69&quot;)"><path d=" M6,15  C8.2501,15 9.7498,15.0001 15,15 C20.2502,14.9999 20.7748,3.6 27,3.6 C33.2252,3.6 33.8998,14.9999 39.9,15 C45.9002,15.0001 45.9748,15 51,15 C56.0252,15 57.7499,15 60,15"></path></g></g><title id="id-66-title">Chart created using amCharts library</title></g><g role="tooltip" visibility="hidden" opacity="0"><g fill="#ffffff" fill-opacity="0.9" stroke-width="1" stroke-opacity="1" stroke="#ffffff" filter="url(&quot;#filter-id-83&quot;)" style="pointer-events: none;" transform="translate(0,6)"><path d="M3,0 L3,0 L0,-6 L13,0 L21,0 a3,3 0 0 1 3,3 L24,8 a3,3 0 0 1 -3,3 L3,11 a3,3 0 0 1 -3,-3 L0,3 a3,3 0 0 1 3,-3"></path></g><g><g fill="#ffffff" style="pointer-events: none;" transform="translate(12,6)"><g transform="translate(0,7)" display="none"></g></g></g></g></g></g></g></g></svg>