<svg version="1.1" xmlns="http://www.w3.org/2000/svg" xmlns:xlink="http://www.w3.org/1999/xlink" role="group" style="width: 350px; height: 350px; overflow: visible;"><defs><clipPath id="id-124"><rect width="350" height="350"></rect></clipPath><linearGradient id="gradient-id-147" x1="1%" x2="99%" y1="59%" y2="41%"><stop stop-color="#474758" offset="0"></stop><stop stop-color="#474758" stop-opacity="1" offset="0.75"></stop><stop stop-color="#3cabff" stop-opacity="1" offset="0.755"></stop></linearGradient><clipPath id="id-156"></clipPath><filter id="filter-id-129" filterUnits="objectBoundingBox" width="200%" height="200%" x="-50%" y="-50%"><feGaussianBlur result="blurOut" in="SourceGraphic" stdDeviation="1.5"></feGaussianBlur><feOffset result="offsetBlur" dx="1" dy="1"></feOffset><feFlood flood-color="#000000" flood-opacity="0.5"></feFlood><feComposite in2="offsetBlur" operator="in"></feComposite><feMerge><feMergeNode></feMergeNode><feMergeNode in="SourceGraphic"></feMergeNode></feMerge></filter><filter id="filter-id-144" filterUnits="objectBoundingBox" width="120%" height="120%" x="-10%" y="-10%"><feColorMatrix type="saturate" values="0"></feColorMatrix></filter><filter id="filter-id-161" filterUnits="objectBoundingBox" width="200%" height="200%" x="-50%" y="-50%"><feGaussianBlur result="blurOut" in="SourceGraphic" stdDeviation="1.5"></feGaussianBlur><feOffset result="offsetBlur" dx="1" dy="1"></feOffset><feFlood flood-color="#000000" flood-opacity="0.5"></feFlood><feComposite in2="offsetBlur" operator="in"></feComposite><feMerge><feMergeNode></feMergeNode><feMergeNode in="SourceGraphic"></feMergeNode></feMerge></filter></defs><g><g fill="#ffffff" fill-opacity="0"><rect width="350" height="350"></rect></g><g><g role="region" clip-path="url(&quot;#id-124&quot;)" opacity="1" aria-label="Chart"><g><g><g><g><g><g transform="translate(175,175)"><g><g role="group" opacity="1" aria-label="Series" font-size="9px"><g><g clip-path="url(&quot;#id-156&quot;)"><g></g></g><g></g><g><g></g></g><g><g></g></g><g><g></g></g><g fill="#ffffff"><g></g></g></g></g><g fill="#000000" font-size="0.8em"><g transform="translate(-149.5,-30)" style="user-select: none;"><text x="149.5px" y="20" dy="-5.4" text-anchor="middle"><tspan>Станом на 21:00 28.05.2024  відсутня</tspan></text><text x="149.5px" y="40" dy="-5.4" text-anchor="middle"><tspan> інформація щодо Графіка погодинного</tspan></text><text x="149.5px" y="60" dy="-5.4" text-anchor="middle"><tspan> вимкнення за Вашою адресою</tspan></text></g></g></g></g><g transform="translate(175,175)"><g><g><g></g></g></g></g></g></g></g></g></g></g><g><g><g role="tooltip" visibility="hidden" opacity="0"><g fill="#ffffff" fill-opacity="0.9" stroke-width="1" stroke-opacity="1" stroke="#ffffff" filter="url(&quot;#filter-id-129&quot;)" style="pointer-events: none;" transform="translate(0,6)"><path d="M3,0 L3,0 L0,-6 L13,0 L21,0 a3,3 0 0 1 3,3 L24,8 a3,3 0 0 1 -3,3 L3,11 a3,3 0 0 1 -3,-3 L0,3 a3,3 0 0 1 3,-3"></path></g><g><g fill="#ffffff" style="pointer-events: none;" transform="translate(12,6)"><g transform="translate(0,7)" display="none"></g></g></g></g><g visibility="hidden" display="none"><g fill="#ffffff" opacity="1"><rect width="350" height="350"></rect></g><g><g><g><g stroke-opacity="1" fill="#f3f3f3" fill-opacity="0.8"><g><g><path d=" M53,0  a53,53,0,0,1,-106,0 a53,53,0,0,1,106,0 M42,0  a42,42,0,0,0,-84,0 a42,42,0,0,0,84,0 L42,0 "></path></g></g></g><g stroke-opacity="1" fill="#000000" fill-opacity="0.2"><g><g><path d=""></path></g></g></g><g fill="#000000" fill-opacity="0.4"><g display="none"></g></g></g></g></g></g><g opacity="0" aria-labelledby="id-144-title" filter="url(&quot;#filter-id-144&quot;)" display="none" style="cursor: pointer;" aria-hidden="true" visibility="hidden"><g fill="#ffffff" opacity="0"><rect></rect></g><g><g shape-rendering="auto" fill="none" stroke-opacity="1" stroke-width="1.7999999999999998" stroke="#3cabff"><path d=" M15,15  C17.4001,15 22.7998,15.0001 27,15 C31.2002,14.9999 33.2999,6 36,6 C38.7001,6 38.6999,10.5 40.5,10.5 C42.3001,10.5 42.2999,6 45,6 C47.7001,6 50.9999,14.9999 54,15 C57.0002,15.0001 58.7999,15 60,15"></path></g><g shape-rendering="auto" fill="none" stroke-opacity="1" stroke-width="1.7999999999999998" stroke="url(&quot;#gradient-id-147&quot;)"><path d=" M6,15  C8.2501,15 9.7498,15.0001 15,15 C20.2502,14.9999 20.7748,3.6 27,3.6 C33.2252,3.6 33.8998,14.9999 39.9,15 C45.9002,15.0001 45.9748,15 51,15 C56.0252,15 57.7499,15 60,15"></path></g></g><title id="id-144-title">Chart created using amCharts library</title></g><g role="tooltip" visibility="hidden" opacity="0"><g fill="#ffffff" fill-opacity="0.9" stroke-width="1" stroke-opacity="1" stroke="#ffffff" filter="url(&quot;#filter-id-161&quot;)" style="pointer-events: none;" transform="translate(0,6)"><path d="M3,0 L3,0 L0,-6 L13,0 L21,0 a3,3 0 0 1 3,3 L24,8 a3,3 0 0 1 -3,3 L3,11 a3,3 0 0 1 -3,-3 L0,3 a3,3 0 0 1 3,-3"></path></g><g><g fill="#ffffff" style="pointer-events: none;" transform="translate(12,6)"><g transform="translate(0,7)" display="none"></g></g></g></g></g></g></g></g></svg>